<?xml version="1.0" encoding="UTF-8" standalone="no"?>
<!DOCTYPE svg PUBLIC "-//W3C//DTD SVG 1.1//EN" "http://www.w3.org/Graphics/SVG/1.1/DTD/svg11.dtd">
<svg width="100%" height="100%" viewBox="0 0 205 73" version="1.1" xmlns="http://www.w3.org/2000/svg" xmlns:xlink="http://www.w3.org/1999/xlink" xml:space="preserve" xmlns:serif="http://www.serif.com/" style="fill-rule:evenodd;clip-rule:evenodd;stroke-miterlimit:10;">
    <g transform="matrix(1,0,0,1,-0.3,-0.45)">
        <g>
            <path d="M144.2,69.5L131.6,69.5L131.6,59.3L131.3,59.3C128.7,63.1 125.5,66.2 121.6,68.4C117.8,70.6 113.6,71.8 109,71.8C104.1,71.8 99.8,70.9 95.8,69C91.8,67.1 88.6,64.5 85.9,61.2C83.2,57.9 81.1,54.1 79.7,49.8C78.3,45.5 77.6,41 77.6,36.4C77.6,31.9 78.3,27.6 79.8,23.5C81.2,19.3 83.3,15.7 86,12.4C88.7,9.2 92,6.7 95.8,4.8C99.6,3 103.9,2.1 108.5,2.1C113.3,2.1 117.6,3.2 121.4,5.5C125.3,7.8 128.5,10.9 131.1,14.9L131.4,14.9L131.4,4L144,4L144,69.5L144.2,69.5ZM126.6,53.7C130.4,49.1 132.3,43.5 132.3,36.8C132.3,30.2 130.4,24.6 126.6,20.1C122.8,15.6 117.6,13.3 111.1,13.3C104.8,13.3 99.8,15.6 96.1,20.2C92.3,24.8 90.4,30.3 90.4,36.8C90.4,43.3 92.3,48.9 96,53.6C99.7,58.3 104.8,60.6 111.1,60.6C117.6,60.5 122.8,58.2 126.6,53.7Z" style="fill:rgb(6,6,6);fill-rule:nonzero;"/>
            <path d="M187.2,3.9L202.9,3.9L178,34.2L204.3,69.5L187.9,69.5L166.9,40L166.7,40L166.7,69.5L154,69.5L154,3.9L166.8,3.9L166.8,31.5L167,31.5L187.2,3.9Z" style="fill-rule:nonzero;"/>
            <path d="M27.7,23.4C30.3,21.6 33.5,20.5 37,20.5C40.4,20.5 43.6,21.6 46.3,23.4L52.6,15.9C48.3,12.7 42.9,10.7 37,10.7C31.2,10.7 25.8,12.6 21.4,15.9L27.7,23.4Z" style="fill:rgb(54,133,181);fill-rule:nonzero;"/>
            <rect x="32.1" y="37.8" width="9.8" height="25.6"/>
            <circle cx="37" cy="36.8" r="30.9" style="fill:none;stroke:black;stroke-width:9.75px;"/>
            <circle cx="37" cy="33.1" r="7.8"/>
        </g>
    </g>
</svg>
